<?xml version="1.0" encoding="UTF-8"?>
<svg viewBox="0 0 540 540" xmlns="http://www.w3.org/2000/svg" xmlns:xlink="http://www.w3.org/1999/xlink">
 <g transform="translate(0 -512.36)">
  <g transform="matrix(1 -7.0423e-9 5.9564e-9 1 -96.089 201.43)">
   <g fill="#faa" font-family="MA Sexy" font-size="387.74" letter-spacing="0" word-spacing="0">
    <text transform="translate(96.089 310.93)" x="-639.78455" y="243.45752" fill="#000" font-family="MA Sexy" font-size="36" letter-spacing="0" word-spacing="0">
     <tspan x="-639.78455" y="243.45752"/>
    </text>
    <g transform="translate(-69.542 -145.34)">
     <g fill="#000" font-family="MA Sexy" font-size="104.26" letter-spacing="0" word-spacing="0">
      <g transform="matrix(.54234 .84016 -.84016 .54234 817.55 100.48)" fill="#ff8080">
       <g transform="matrix(.33144 -.51345 .51345 .33144 473.94 314.56)">
        <path transform="matrix(-1.2517 -1.304 1.304 -1.2517 -572.37 1476.4)" d="m735.57 384.31-268.52-114.52-157.98 161.68 147.64 249.15 279.08-6.6465z" fill="#5f9ea0"/>
        <path d="m-1008.2 83.79-57.43-4.1743 443.03-455 411.61 437.82c38.916 28.019-25.942 12.696-46.524 17.184l-360.99-400.73z" fill="#800000"/>
        <path d="m-832.12 499.38h454.72v39.541h-454.72z" fill="#800000"/>
        <path transform="matrix(1.8661 0 0 1.8661 -1314.8 -401.79)" d="m339.02 154.49h74.161v60.918h-74.161z" fill="#000"/>
        <path transform="matrix(-.89393 .0184 -.01874 -.87784 -741.16 -.21167)" d="m-68.864 118.73a76.809 83.431 0 1 1 -153.61 -1.3963l76.799 1.3963z" fill="#000"/>
        <path transform="matrix(1.8661 0 0 1.8661 -1314.8 -401.79)" d="m373.45 117.41h6.6215v97.998h-6.6215z" fill="#f5fffa"/>
        <path transform="rotate(90)" d="m-60.369 545.02h12.356v138.39h-12.356z" fill="#f5fffa"/>
        <path transform="rotate(90)" d="m-127.09 542.55h12.356v138.39h-12.356z" fill="#f5fffa"/>
        <path transform="matrix(1.6363 0 0 1.6363 -121.47 45.238)" d="m-267.48 204.01a38.8 38.8 0 1 1 -77.601 0 38.8 38.8 0 1 1 77.601 0z" fill="#000"/>
        <g transform="translate(-9.8179 29.454)">
         <path transform="rotate(-90)" d="m-279.91-487.25h138.39v113.68h-138.39z" fill="#000"/>
         <path transform="rotate(-90)" d="m-209.11-491.6h12.356v118.03h-12.356z" fill="#f5fffa"/>
         <path d="m-437.39 142.75h12.356v138.39h-12.356z" fill="#f5fffa"/>
        </g>
        <g transform="translate(-9.8179 29.454)">
         <path transform="rotate(-90)" d="m-280.48-838.47h138.39v113.68h-138.39z" fill="#000"/>
         <path transform="rotate(-90)" d="m-206.04-842.82h12.356v118.03h-12.356z" fill="#f5fffa"/>
         <path d="m-788.61 139.68h12.356v138.39h-12.356z" fill="#f5fffa"/>
        </g>
        <g fill="#fff" font-family="MA Sexy" font-size="84.731" letter-spacing="0" word-spacing="0">
         <path d="m-718.68 131.16c-0.82752 0.22064-1.7239 0.34476-2.6892 0.37235-2.2893-0.0552-4.0684-1.1171-5.3371-3.1857s-2.1238-3.9856-2.5651-5.7508-0.92405-3.5305-1.448-5.2957c-0.49653-1.7928-1.4343-5.9163-2.8133-12.37l-0.78608 0.95157c-3.5305 7.8608-5.6543 12.577-6.3714 14.149-0.68959 1.5722-1.6136 4.6475-2.772 9.2261-1.1309 4.5786-2.3859 10.164-3.7649 16.756l-0.78608 0.57922-3.0202-0.41373-0.95157-0.53784c0.99291-8.5228 1.0481-18.866 0.16549-31.029s-1.8618-19.983-2.9374-23.458c-1.0757-3.5028-2.8823-7.3781-5.4198-11.626-2.5376-4.2751-4.3855-6.9781-5.5439-8.109-1.1309-1.1308-2.772-2.1375-4.9233-3.0202-2.1514-0.91014-4.0821-1.1998-5.7922-0.86882-1.7101 0.30345-3.3236 0.9792-4.8406 2.0273-1.4894 1.0206-2.5099 2.9513-3.0616 5.7922-0.52405 2.841-0.46889 4.7993 0.16549 5.8749s1.6273 2.0135 2.9788 2.8133c1.3791 0.77233 2.4961 1.186 3.3512 1.2412 0.85502 0.02762 1.3377 0.13794 1.448 0.33098 0.1379 0.16553 0.23443 0.38618 0.28961 0.66196 0.0827 0.24827-0.41374 0.49651-1.4894 0.74471s-1.7514 0.31722-2.0273 0.20686c-0.24825-0.13788-0.78609-0.35853-1.6135-0.66196-0.79988-0.33095-1.3791-0.57918-1.7376-0.74471s-0.71713-0.38611-1.0757-0.66196c-0.33098-0.27578-1.0343-1.0067-2.11-2.1928-1.0757-1.2136-1.9721-2.6202-2.6892-4.22s-0.62059-3.5994 0.28961-5.999 1.9031-4.2062 2.9788-5.4198 2.9099-2.3996 5.5026-3.558 4.9509-1.6962 7.0747-1.6135c2.1514 0.0828 4.7992 0.66202 7.9435 1.7376 3.1719 1.0757 6.1231 4.0132 8.8537 8.8124s4.7164 9.2123 5.9576 13.239c1.2411 3.9994 2.4272 16.728 3.558 38.187l-0.33099 7.1575c2.5099-8.0539 6.5782-18.245 12.205-30.574-0.0828-5.7094-0.31724-10.012-0.70333-12.908s-0.42757-6.3713-0.12412-10.426c0.33093-4.082 1.0205-7.6677 2.0686-10.757s2.5099-5.8197 4.3855-8.1918c1.9031-2.372 3.5166-3.751 4.8406-4.1373 1.3514-0.38608 2.5926 0.01386 3.7235 1.1998 1.1584 1.1861 1.8341 2.3997 2.0273 3.6408 0.193 1.2137 0.28954 2.2618 0.28961 3.1443s-0.60687 3.7098-1.8204 8.4814c-1.2137 4.7441-2.3031 8.3573-3.2684 10.84-0.93784 2.4824-1.848 4.9372-2.7306 7.3643-0.88268 2.3996-1.7101 4.3579-2.4824 5.8749v2.6478c0.63432 6.73 1.6548 13.598 3.0616 20.604s3.558 10.288 6.4541 9.8467c1.7927-2.7858 5.3232-11.157 10.591-25.113s9.2122-23.941 11.833-29.954 4.9094-10.895 6.8678-14.646 4.1509-7.0057 6.5782-9.7639c2.4271-2.7857 4.2751-4.4544 5.5439-5.0061 1.2962-0.55156 2.3995-0.34469 3.3098 0.62059s1.7651 1.9584 2.5651 2.9788c0.82733 1.0206 1.0204 1.848 0.57921 2.4824s-0.75861 0.8551-0.95157 0.66196-0.70345-0.46882-1.5308-0.82745c-0.79999-0.38607-1.7102-0.48261-2.7306-0.28961s-1.7929 0.53792-2.3169 1.0343c-0.49658 0.49654-1.6964 2.0825-3.5994 4.7578-1.9032 2.6479-4.1236 6.1094-6.661 10.385-2.5376 4.2476-5.3647 10.522-8.4814 18.825-3.0892 8.3021-5.875 15.184-8.3573 20.645s-4.4821 10.288-5.999 14.48c-1.5171 4.1648-2.7169 6.9368-3.5994 8.3159-0.88269 1.4067-1.4619 2.2479-1.7376 2.5237-0.24831 0.27581-0.74478 0.64816-1.4894 1.1171m-10.095-45.096 0.33098 2.2341c1.9031-4.4682 3.296-8.04 4.1786-10.716 0.91014-2.6754 1.5859-5.0612 2.0273-7.1575 0.46882-2.1237 0.78601-3.9579 0.95157-5.5026s0.19301-3.0891 0.0828-4.6337c-0.0828-1.5721-0.45517-2.4823-1.1171-2.7306-0.63445-0.27575-1.5998 0.46895-2.8961 2.2341-1.2688 1.7377-2.5376 5.0475-3.8063 9.9294-1.2412 4.8544-1.1585 10.302 0.24824 16.342"/>
         <path d="m-685.05 97.026c-0.63439 3.1719-1.0067 5.3509-1.1171 6.5369-0.0828 1.186-1e-5 3.0616 0.24823 5.6267s0.60679 4.7716 1.0757 6.6196c0.46888 1.8204 1.448 3.5305 2.9374 5.1302 1.4894 1.5722 2.7857 2.6754 3.889 3.3098 1.1308 0.66195 2.3444 1.255 3.6408 1.779 1.2963 0.55163 2.4961 0.62058 3.5994 0.20686 1.1032-0.38615 2.1789-0.82746 3.2271-1.3239 1.0757-0.49648 2.0686-1.5997 2.9788-3.3098 0.93775-1.7101 1.6273-3.4891 2.0686-5.3371 0.44128-1.8756 0.77226-3.0754 0.99294-3.5994s0.45507-0.85503 0.70334-0.99294c0.27578-0.1379 0.49644-0.0965 0.66196 0.12411 0.19304 0.19309 0.48265 0.42753 0.86882 0.70334s0.13788 1.8204-0.7447 4.6337-1.7791 4.7992-2.6892 5.9576c-0.88265 1.186-2.3996 2.3582-4.551 3.5167-2.1514 1.186-4.1373 1.8342-5.9576 1.9445-1.7928 0.1379-4.0407-0.27583-6.7437-1.2412-2.703-0.93779-4.8958-2.3582-6.5782-4.2614s-2.772-3.3788-3.2684-4.4269c-0.49648-1.0757-1.0619-2.6478-1.6963-4.7165-0.63438-2.0962-0.99294-4.4544-1.0757-7.0747-0.0552-2.6202 0.35856-5.93 1.2412-9.9294 0.9102-4.0269 2.3306-7.7091 4.2614-11.046s4.0407-5.9576 6.33-7.8608c2.3168-1.9307 4.4544-3.2684 6.4128-4.0131s3.5718-1.0756 4.8406-0.99294c1.2963 0.05521 2.7306 0.63443 4.3028 1.7376 1.5997 1.0757 2.9236 2.9375 3.9718 5.5853 1.0757 2.6479 1.517 4.9785 1.3239 6.992-0.16552 2.0135-0.78611 3.889-1.8618 5.6267-1.0757 1.7101-2.6892 3.2409-4.8406 4.5924-2.1238 1.3239-4.4269 2.2066-6.9092 2.6478-2.4548 0.41375-4.1924 0.48271-5.213 0.20687-1.0205-0.30338-3.1305-1.4204-6.33-3.3512m0.82745-1.9445c3.8063 2.9237 7.1574 4.0132 10.054 3.2684s5.075-2.11 6.5369-4.0959 2.3996-3.9166 2.8133-5.7922c0.44127-1.8755 0.56539-3.8614 0.37235-5.9576-0.16552-2.1238-0.6482-3.8752-1.448-5.2543-0.77232-1.4066-1.8618-2.1513-3.2684-2.2341-1.3791-0.0827-2.7996 0.45514-4.2614 1.6135s-3.2409 3.2961-5.3371 6.4128-3.9166 7.1299-5.4612 12.039"/>
         <path d="m-641.81 115.89-0.82745 1.8204 0.66196 1.8204c0.8826 0.99294 1.4066 1.586 1.5722 1.779 0.19305 0.19307 0.4137 0.38615 0.66196 0.57922 0.2758 0.19307 0.63436 0.51026 1.0757 0.95157s0.91017 0.82745 1.4067 1.1584 1.1308 0.55163 1.9031 0.66196 1.4894 0.13791 2.1514 0.0827 1.517-0.44131 2.5651-1.1584 1.6549-1.1171 1.8204-1.1998c0.19305-0.0828 0.4137-0.13791 0.66196-0.16549 0.27579-0.0276 0.4137 0.12412 0.41373 0.4551s-0.13794 0.79987-0.41373 1.4067-0.66199 1.2274-1.1584 1.8618c-0.46892 0.66196-0.9516 1.1584-1.448 1.4894s-1.0757 0.55162-1.7376 0.66196-1.3791 0.1379-2.1514 0.0827-1.7928-0.33098-3.0616-0.82745-2.7444-1.779-4.4269-3.8476c-0.331-0.52406-0.71714-1.0205-1.1584-1.4894-0.38615-0.44131-0.82746-0.82746-1.3239-1.1584l-1.1584 1.3239c-0.27583 0.49647-0.60681 1.0481-0.99294 1.6549-0.66198 1.1033-1.6273 2.4134-2.8961 3.9304-1.2412 1.5446-2.6203 2.9374-4.1373 4.1786-1.4894 1.2412-3.3788 1.8755-5.668 1.9031-2.3169 0.0551-3.9856-0.41374-5.0061-1.4067s-1.6273-1.9032-1.8204-2.7306c-0.22065-0.82746-0.26202-2.0273-0.12412-3.5994s0.55164-2.9237 1.2412-4.0545 1.3929-2.0548 2.11-2.772 1.3791-1.2136 1.9859-1.4894 1.1584-0.22065 1.6549 0.16549 0.81366 0.73092 0.95157 1.0343c0.13791 0.27582 0.24824 0.6068 0.33098 0.99294 0.0827 0.35856 0 0.62059-0.24823 0.78608-0.22066 0.16549-0.48268 0.27582-0.78608 0.33098-0.33098 0.0552-0.88262 0.24823-1.6549 0.57922-0.79986 0.33098-1.517 1.1722-2.1514 2.5237s-0.7447 2.7306-0.33098 4.1373 1.1308 2.2893 2.1514 2.6478c0.99295 0.38613 1.9583 0.31718 2.8961-0.20686 0.93778-0.49648 2.6478-2.11 5.1302-4.8406 2.5099-2.7306 4.5234-5.8611 6.0404-9.3916l-1.4067-3.0616c-3.4753-5.737-5.4474-13.46-5.9163-23.169s-0.0276-18.59 1.3239-26.644c1.3791-8.0538 4.3027-14.177 8.771-18.369 4.4958-4.2199 7.8332-4.9922 10.012-2.3169s3.5028 6.5645 3.9718 11.667 0.15167 12.108-0.95157 21.017c-1.1033 8.8814-2.5789 16.784-4.4269 23.706-1.8204 6.923-3.8477 12.426-6.0818 16.508m-2.772-5.1302c2.4823-7.0333 4.3027-13.336 5.4612-18.907s2.1927-11.943 3.1029-19.114 0.81364-13.915-0.28961-20.231c-1.1033-6.3437-3.1995-8.1503-6.2886-5.4198-3.0892 2.7031-5.3647 7.8609-6.8265 15.473-1.4618 7.585-2.2341 14.674-2.3169 21.266s0.41372 12.426 1.4894 17.501c1.0757 5.0475 2.2065 8.44 3.3926 10.178s1.9445 1.4894 2.2755-0.74471"/>
         <path d="m-593.57 106.04c-0.13794 1.6273-0.62062 3.1443-1.448 4.551s-1.5446 2.5927-2.1514 3.558c-0.60683 0.93779-1.2274 1.7928-1.8618 2.5651-0.60683 0.74471-1.4756 1.5032-2.6065 2.2755-1.1309 0.7447-2.7168 1.3653-4.7578 1.8618s-4.2062 0.78608-6.4955 0.86883c-2.2617 0.0827-4.1373-0.13791-5.6267-0.66196-1.4894-0.55164-2.9375-1.4067-4.3441-2.5651-1.3791-1.186-2.4134-3.3512-3.1029-6.4955s-0.74471-6.4679-0.16549-9.9708c0.6068-3.5304 1.9997-7.7642 4.1786-12.701 2.2065-4.9647 5.475-8.7434 9.8053-11.336 4.3579-2.5926 8.0676-2.896 11.129-0.9102 3.0891 1.9859 4.744 3.3374 4.9647 4.0545 0.22062 0.68958-0.0828 0.89645-0.9102 0.62059-0.82748-0.30336-1.6687-0.89637-2.5237-1.779-0.82748-0.91016-2.2617-1.6549-4.3028-2.2341-2.0135-0.57917-3.9994 0.3724-5.9576 2.8547s-3.9442 5.5026-5.9577 9.0606-3.3236 7.4747-3.9304 11.75-0.63439 7.4057-0.0827 9.3916 1.448 3.6408 2.6892 4.9647 2.7995 2.2203 4.6751 2.6892c1.8755 0.44131 3.9855 0.41373 6.33-0.0827 2.3444-0.52405 4.151-1.3791 5.4198-2.5651 1.2687-1.2136 2.3306-2.6065 3.1857-4.1786 0.855-1.5997 1.5583-2.9236 2.11-3.9718 0.57919-1.0481 1.1584-1.5859 1.7376-1.6135"/>
         <path d="m-556.13 72.574c0.66193 0.2207 1.0481 0.74475 1.1584 1.5722-0.13794 0.77233-0.28964 1.3516-0.45509 1.7376-0.13795 0.35861-0.34481 0.63443-0.62059 0.82745-0.24828 0.16553-0.49651 0.39998-0.74471 0.70333-0.22069 0.27586-0.46893 0.74475-0.74471 1.4067-0.27585 0.63442-1.0206 2.0135-2.2341 4.1373 0.91017 1.324 1.5721 5.6267 1.9859 12.908s-0.44135 12.867-2.5651 16.756c-2.0962 3.8614-4.0683 6.5231-5.9163 7.9849s-3.8339 2.5237-5.9576 3.1857c-2.0962 0.66196-3.9994 1.0619-5.7094 1.1998-1.6825 0.16549-3.5856 0.0414-5.7094-0.37235s-3.8201-1.3239-5.0888-2.7306c-1.2688-1.3791-2.3306-3.2822-3.1857-5.7094-0.85503-2.4548-1.1584-5.6542-0.91019-9.5984 0.27581-3.9442 1.3653-7.9435 3.2684-11.998 1.9031-4.0821 4.0821-7.254 6.5369-9.5157 2.4824-2.2617 4.6889-3.8614 6.6196-4.7992 1.9307-0.96532 3.889-1.4894 5.8749-1.5722 1.9859-0.11028 3.3925-0.09649 4.22 0.04137 0.82743 0.11037 2.1789 0.63442 4.0545 1.5722 1.6549-1.4894 2.6754-2.6478 3.0616-3.4753 0.38611-0.85499 0.855-2.041 1.4067-3.558l1.6549-0.70334m-22.796 12.743c0.52404 0.99298 2.1789 1.9583 4.9647 2.8961 2.8133 0.91023 6.0955-1.0205 9.8467-5.7922-1.4894-0.79983-2.8961-1.3101-4.22-1.5308s-2.8685-0.02754-4.6337 0.57922-3.7511 1.8894-5.9576 3.8476m16.384 0.57922c-1.9308 2.9237-4.9372 4.8958-9.0192 5.9163-4.0821 0.99297-7.2126-0.46886-9.3916-4.3855-2.6478 4.9647-4.4407 9.433-5.3784 13.405-0.93779 3.9442-0.91021 8.3986 0.0827 13.363 1.0205 4.9371 2.2479 7.7642 3.6822 8.4814 1.4618 0.71712 3.1581 0.95156 5.0888 0.70333s3.7787-1.0481 5.5439-2.3996c1.7652-1.3791 3.5028-3.7373 5.213-7.0747 1.7376-3.3374 2.896-7.5298 3.4753-12.577 0.60677-5.075 0.84122-10.219 0.70334-15.432"/>
         <path d="m-550.09 75.926c0.82744 0.19312 1.2688 0.74475 1.3239 1.6549l4.9233 9.9294c4.1372-5.3232 7.447-8.371 9.9294-9.1433 2.5099-0.77224 4.6889 0.3724 6.5369 3.4339 1.848 3.034 2.5099 8.7159 1.9859 17.046 1.9031-8.7158 3.7924-14.191 5.668-16.425 1.9031-2.2341 3.5028-3.6132 4.7992-4.1373 1.2963-0.55159 2.703-0.71708 4.22-0.49647 1.5445 0.19312 2.8822 0.9654 4.0131 2.3169s1.6686 4.1235 1.6135 8.3159c-0.0276 4.1649-0.6758 9.3364-1.9445 15.515-1.2688 6.1507-1.9308 10.922-1.9859 14.315s0.3723 5.406 1.2826 6.0404c0.93773 0.63437 2.0962 0.60679 3.4753-0.0828s2.303-1.4894 2.772-2.3996 0.77223-1.2274 0.91019-0.95157c0.16544 0.27582 0.24819 0.6068 0.24824 0.99295 0.0275 0.38614 0.0827 0.96535 0.16549 1.7376 0.0827 0.79987-0.30345 1.6825-1.1584 2.6478-0.85509 0.96536-2.2342 1.3929-4.1373 1.2826-1.8756-0.11033-3.5719-0.74471-5.0888-1.9031-1.517-1.1308-2.441-3.3236-2.772-6.5782-0.33103-3.2822-0.15175-6.6058 0.53784-9.9708 1.5445-11.226 2.3858-18.466 2.5237-21.721 0.16544-3.2822-0.26207-5.4474-1.2826-6.4955-0.99299-1.0481-2.4686-0.64813-4.4269 1.1998-1.9308 1.8204-3.4615 4.5786-4.5924 8.2745-1.1309 3.6684-1.9445 6.3576-2.441 8.0677-0.4965 1.6825-1.1998 5.1164-2.11 10.302-0.0276 0.82746-0.30342 1.5998-0.82745 2.3169-0.44133 0.63438-1.1033 0.96536-1.9859 0.99294-0.27585-0.41372-0.55166-0.91019-0.82745-1.4894l-0.28961-0.0827-0.33098-11.253c-0.0828-5.7921-0.52408-10.178-1.3239-13.156-0.79989-3.0064-1.6411-4.6199-2.5237-4.8406-0.85506-0.22061-2.1238 0.39997-3.8063 1.8618-1.6825 1.4343-3.4753 3.6546-5.3784 6.661 0.52404 1.3515 1.3653 4.3304 2.5237 8.9365s1.6963 8.2056 1.6135 10.798-0.30342 4.6337-0.66196 6.1231-0.99296 3.1857-1.9031 5.0888-1.8618 3.3098-2.8547 4.22c-0.96537 0.93777-2.1376 1.5859-3.5167 1.9445-1.3791 0.38614-2.5927 0.27581-3.6408-0.33098s-1.8618-1.7239-2.441-3.3512c-0.55164-1.6273-0.56543-3.7649-0.0414-6.4128 0.52405-2.6754 1.1584-5.2267 1.9031-7.6539 0.77229-2.4548 1.3377-4.3303 1.6963-5.6267 0.35856-1.3239 0.84124-2.8271 1.448-4.5096s1.0619-3.5304 1.3653-5.5439c-1.3239-4.413-2.8685-8.6606-4.6337-12.743l-0.82746-0.99294c0.0552-0.3861 0.16549-0.77225 0.33098-1.1584 0.63438-1.0756 1.2826-1.9307 1.9445-2.5651m4.5096 20.604c-0.93779 3.034-1.4756 4.8544-1.6135 5.4612-0.11034 0.57923-0.7723 2.9099-1.9859 6.992s-1.8756 6.6748-1.9859 7.778-0.069 2.4134 0.12412 3.9304 0.67574 2.3169 1.448 2.3996c0.77228 0.11033 1.3377 0.0552 1.6963-0.16549 0.38614-0.19307 0.99294-0.86882 1.8204-2.0272 0.85502-1.186 1.5446-3.3236 2.0686-6.4128 0.52404-3.1167 0.5792-5.9576 0.16549-8.5228-0.41374-2.5927-0.67576-4.1097-0.78608-4.551-0.0828-0.46887-0.39995-2.0962-0.95157-4.882"/>
         <path d="m-493.24 97.026c-0.63439 3.1719-1.0067 5.3509-1.1171 6.5369-0.0828 1.186-1e-5 3.0616 0.24823 5.6267s0.60679 4.7716 1.0757 6.6196c0.46888 1.8204 1.448 3.5305 2.9374 5.1302 1.4894 1.5722 2.7857 2.6754 3.889 3.3098 1.1308 0.66195 2.3444 1.255 3.6408 1.779 1.2963 0.55163 2.4961 0.62058 3.5994 0.20686 1.1032-0.38615 2.1789-0.82746 3.2271-1.3239 1.0757-0.49648 2.0686-1.5997 2.9788-3.3098 0.93775-1.7101 1.6273-3.4891 2.0686-5.3371 0.44128-1.8756 0.77226-3.0754 0.99294-3.5994s0.45507-0.85503 0.70334-0.99294c0.27578-0.1379 0.49644-0.0965 0.66196 0.12411 0.19304 0.19309 0.48265 0.42753 0.86882 0.70334s0.13788 1.8204-0.7447 4.6337-1.7791 4.7992-2.6892 5.9576c-0.88265 1.186-2.3996 2.3582-4.551 3.5167-2.1514 1.186-4.1373 1.8342-5.9576 1.9445-1.7928 0.1379-4.0407-0.27583-6.7437-1.2412-2.703-0.93779-4.8958-2.3582-6.5782-4.2614s-2.772-3.3788-3.2684-4.4269c-0.49648-1.0757-1.0619-2.6478-1.6963-4.7165-0.63438-2.0962-0.99294-4.4544-1.0757-7.0747-0.0552-2.6202 0.35856-5.93 1.2412-9.9294 0.9102-4.0269 2.3306-7.7091 4.2614-11.046s4.0407-5.9576 6.33-7.8608c2.3168-1.9307 4.4544-3.2684 6.4128-4.0131s3.5718-1.0756 4.8406-0.99294c1.2963 0.05521 2.7306 0.63443 4.3028 1.7376 1.5997 1.0757 2.9236 2.9375 3.9718 5.5853 1.0757 2.6479 1.517 4.9785 1.3239 6.992-0.16552 2.0135-0.78611 3.889-1.8618 5.6267-1.0757 1.7101-2.6892 3.2409-4.8406 4.5924-2.1238 1.3239-4.4269 2.2066-6.9092 2.6478-2.4548 0.41375-4.1924 0.48271-5.213 0.20687-1.0205-0.30338-3.1305-1.4204-6.33-3.3512m0.82745-1.9445c3.8063 2.9237 7.1574 4.0132 10.054 3.2684s5.075-2.11 6.5369-4.0959 2.3996-3.9166 2.8133-5.7922c0.44127-1.8755 0.56539-3.8614 0.37235-5.9576-0.16552-2.1238-0.6482-3.8752-1.448-5.2543-0.77232-1.4066-1.8618-2.1513-3.2684-2.2341-1.3791-0.0827-2.7996 0.45514-4.2614 1.6135s-3.2409 3.2961-5.3371 6.4128-3.9166 7.1299-5.4612 12.039"/>
         <path d="m-454.64 41.917c0.57921 0.30348 1.1033 0.68962 1.5722 1.1584l-0.41373 7.0333-4.3028 37.111-1.7376 15.225 0.37235 0.37235c-0.35857 0.88263-1.0619 1.5308-2.11 1.9445-0.55164-0.0827-1.0757-0.2758-1.5722-0.57921 2.0135-12.494 3.4477-33.594 4.3028-63.3 0.96535-0.44123 2.2617-0.09646 3.889 1.0343m-7.4884 75.753c0.68954 0.1655 1.3377 0.48269 1.9445 0.95157 0.27581 0.6068 0.41372 1.255 0.41373 1.9445l-0.78608 1.9445-1.5722 1.1998-2.3169-0.57921-0.20687-2.5651c0.33098-0.49647 0.66196-1.0757 0.99295-1.7376l1.5308-1.1584"/>
        </g>
       </g>
      </g>
     </g>
    </g>
   </g>
  </g>
 </g>
</svg>
