<?xml version="1.0" encoding="UTF-8"?>
<svg enable-background="new 0 0 551.592 300.996" viewBox="0 0 551.592 300.996" xmlns="http://www.w3.org/2000/svg">
 <path d="m100.332,1.656 86.076-1.656 78.948,19.728 167.255-7.668 16.452,18.648 59.185,28.512-76.212,19.188 62.531,27.396-29.447,39.888-28.188-.936 2.232,13.68-31.788,14.832-152.424-6.588-154.62-.539-53.352.216 6.768-43.561 19.188-24.66-40.032-7.128-9.864-41.652 69.084-4.932-12.636-23.58 20.844-19.188z" fill="#dde0eb"/>
 <path d="m169.96 36.72 61.956-3.816 72.936 12.6 113.51-10.404 31.787 12.6-49.896 20.268 24.12 19.764-21.925 20.808-31.787-14.796 26.314 42.229-37.296 2.736-55.368-8.784-3.852-12.06-33.984 20.304-88.272-5.472-64.692-16.452 1.62-24.12-36.18-16.452 59.22-4.932-18.104-33.445 49.896-0.576z" fill="#f2f0f3"/>
 <path d="m98.136 161.75-58.104 3.816 15.876 18.106-43.848 24.66 54.828 29.088-66.888 32.869 44.964 13.178 95.4 9.863 21.924 6.588 245.63-18.648 93.779-10.403 24.66-20.304-34.561-24.12 20.304-27.972-70.739-17.533-6.553-20.844-138.2-3.274-146.92 7.127-51.55-2.197z" fill="#9ddae2"/>
 <path d="m64.692 178.2 73.476-3.853 29.052 3.275 70.2-21.383 39.996 5.508 125.57-0.541-13.141 13.141 59.221-0.539 15.336 9.863 52.632 2.195-54.287 15.336-69.084-17.531-177.08 4.933-40.032 15.372-81.684-15.371-70.74 9.865 14.796-15.336 25.776-4.934z" fill="#128080"/>
 <path d="m99.252,279.072 73.44,3.852 29.088-3.313 70.164,21.385 40.032-5.473 125.568.541-13.176-13.142 59.22.541 15.372-9.865 52.632-2.194-54.288-15.373-69.084,17.569-177.12-4.932-39.996-15.373-81.72,15.373-70.704-9.863 14.796,15.336 25.776,4.931z" fill="#128080"/>
 <path d="m71.28 210.53 82.224-6.013 53.208-4.932-53.208 29.592 65.268 9.324-8.244 20.305-58.104 2.197-33.984 10.404-58.68-16.992-53.748-6.049 71.856-6.013-24.696-25.774 18.108-6.049z" fill="#1aa6b6"/>
 <path d="m99.792 190.26 25.2 9.863 36.756-3.852-26.856-10.404-35.1 4.393z" fill="#0086a6"/>
 <path d="m180.94 203.4 25.236 9.862 36.72-3.815-26.856-10.439-35.1 4.392z" fill="#0086a6"/>
 <path d="m327.31 264.82 25.235 9.862 36.72-3.815-26.854-10.439-35.101 4.392z" fill="#0086a6"/>
 <path d="m463.86 228.1 25.199 9.863 36.757-3.852-26.855-10.404-35.101 4.393z" fill="#0086a6"/>
 <path d="m457.81 200.12 25.235 9.865 36.72-3.853-26.854-10.403-35.101 4.391z" fill="#0086a6"/>
 <path d="m410.65 169.85 18.54 7.236 27-2.809-19.765-7.668-25.775 3.241z" fill="#0086a6"/>
 <path d="m371.95 235.44 18.54 7.235 26.964-2.809-19.729-7.668-25.775 3.242z" fill="#0086a6"/>
 <path d="m193.54 274.39 24.552 9.611 35.784-3.744-26.172-10.115-34.164 4.248z" fill="#0086a6"/>
 <path d="m37.836 270.04 24.552 9.576 35.748-3.707-26.136-10.152-34.164 4.283z" fill="#7fc0db"/>
 <path d="m156.28 236.56 24.552 9.611 35.748-3.709-26.172-10.15-34.128 4.248z" fill="#7fc0db"/>
 <path d="m315.07 215.53 24.553 9.612 35.748-3.743-26.137-10.152-34.164 4.283z" fill="#7fc0db"/>
 <path d="m436.21 236.84 24.552 9.611 35.784-3.742-26.172-10.117-34.164 4.248z" fill="#7fc0db"/>
 <path d="m272.48 159.66 16.524 6.479 24.048-2.521-17.567-6.803-23.005 2.845z" fill="#7fc0db"/>
 <path d="m115.13 170.1 16.524 6.443 24.048-2.52-17.568-6.804-23.004 2.881z" fill="#7fc0db"/>
 <path d="m47.16 207.94 16.524 6.445 24.048-2.521-17.604-6.804-22.968 2.88z" fill="#7fc0db"/>
 <path d="m406.76 213.73-33.443-2.197 24.12-21.383 31.787 4.932 28.514-4.393-4.934 14.797 12.062 19.729-36.182 1.654 11.521-16.99-33.445 3.851z" fill="#00738f"/>
 <path d="m443.016,246.744-16.451.539-12.061,9.865-38.376,1.655 54.288,6.552 16.452-10.404 29.592-.539-33.444-7.668z" fill="#00738f"/>
 <path d="m64.152 233.03 59.76-6.047 20.268 7.668 20.844 2.771-31.248 13.141-86.076-8.208 16.452-9.325z" fill="#9ddae2"/>
 <path d="m265.21 205.7 23.58-1.654 53.172 7.127-47.7 6.588-30.708-1.655 1.656-10.406z" fill="#00738f"/>
 <path d="m268.88 239.58 43.849 12.637 20.845-8.785-41.652-5.473-23.042 1.621z" fill="#0086a6"/>
 <path d="m287.64 262.19 24.553 9.612 35.783-3.744-26.172-10.151-34.164 4.283z" fill="#7fc0db"/>
 <path d="m393.479,206.424-16.451.541-12.061,9.863-38.376,1.656 54.288,6.551 16.452-10.402 29.592-.541-33.444-7.668z" fill="#00738f"/>
 <path d="m203.4,137.88 36.828,100.079-37.836-8.314-4.032-92.269 5.04.504z" fill="#bf0f3d"/>
 <path d="m201.132,83.196 67.32,150.732c-15.66-4.319-26.028-7.127-31.248-8.567-5.256-1.439-5.256-1.439 0,0l-36.576-96.551-.504-24.192c.324-7.13.648-14.258 1.008-21.422z" fill="#ffffc7"/>
 <path d="m195.084,52.668c.756-5.364 1.548,6.984 2.772,37.584 1.152,30.888 2.448,78.408 4.032,145.188-18.072.36-33.156.288-46.368-.505-13.176-.827-23.616-2.123-32.004-4.03 4.464-20.916 12.384-45.756 24.444-75.638 12.024-30.059 27.504-63.611 47.124-102.599z" fill="#ffffc7"/>
 <path d="m197.1 143.42-34.272-14.112-7.812 18.144 44.604 20.448-2.52-24.48z" fill="#bf0f3d"/>
 <path d="m198.11 175.21-48.132-18.686-7.56 19.944 57.456 23.437-1.764-24.695z" fill="#bf0f3d"/>
 <path d="m219.02 175.97 21.96 6.551 3.528 11.341-21.708-5.795-3.78-12.097z" fill="#bf0f3d"/>
 <path d="m227.59 197.39 21.204 4.535 4.032 8.568-22.68-3.023-2.556-10.08z" fill="#bf0f3d"/>
 <path d="m117.72,234.684c.972-3.852 4.968-13.967 11.844-30.743 6.984-17.101 17.784-43.992 29.484-69.587 11.52-25.596 24.444-52.488 39.312-82.188 1.656,18.792 2.7,30.96 3.276,37.332 .504,6.192.504,6.192 0,0l66.06,148.211-25.956-12.096 18.648,5.545-59.76-133.598 1.26,29.232 40.104,108.647-28.764-5.796 23.724,1.765-35.316-93.78 3.024,99.827-64.008-3.023c8.856-.647 17.82-1.114 27.72-1.26 9.864-.145 19.836-.106 30.744.252l-3.528-167.112c-14.328,30.24-27.792,58.932-40.824,87.192-13.068,28.332-25.272,54.793-37.044,81.18z" stroke="#000" stroke-miterlimit="10" stroke-width=".036"/>
 <path d="m121.21 244.01 85.464-1.512 64.548 0.504-12.096 9.324-60.768-1.512-24.444 4.534-45.108-3.022-7.596-8.316z" fill="#bf0f3d"/>
 <path d="m155.52 246.78 36.288-0.504-16.884 3.276-19.404-2.772z" fill="#ffffc7"/>
 <path d="m215.75 247.28 33.552-0.252-20.7-2.521-12.852 2.773z" fill="#ffffc7"/>
 <path d="m270.97 241.24-56.988-0.252-102.1 1.26 13.86 10.08 15.156 5.039-18.684-12.097 64.044-1.008 80.172-1.26-11.34 11.34 15.876-13.102z" stroke="#000" stroke-miterlimit="10" stroke-width=".036"/>
 <path d="m338.08 126.61 22.318 60.697-22.932-5.075-2.448-55.909 3.062 0.287z" fill="#e0dbdc"/>
 <path d="m336.708,93.456 40.788,91.403c-9.504-2.664-15.77-4.355-18.938-5.22-3.203-.899-3.203-.899 0,0l-22.176-58.5-.288-14.688c.181-4.319.398-8.639.614-12.995z" fill="#f0a04a"/>
 <path d="m333.036,74.988c.396-3.276 1.008,4.176 1.69,22.752 .648,18.684 1.514,47.52 2.448,88.02-10.943.252-20.124.107-28.116-.287-8.026-.469-14.327-1.332-19.438-2.448 2.664-12.707 7.56-27.72 14.832-45.864 7.344-18.145 16.596-38.593 28.584-62.173z" fill="#f0a04a"/>
 <path d="m288.252,190.943 51.804-.9 39.133.289-7.345,5.652-36.828-.9-14.832,2.736-27.323-1.836-4.609-5.041z" fill="#e0dbdc"/>
 <path d="m309.06 192.64 21.996-0.289-10.26 1.98-11.736-1.691z" fill="#f0a04a"/>
 <path d="m345.56 192.96 20.34-0.18-12.527-1.513-7.813 1.693z" fill="#f0a04a"/>
 <path d="m379.044,189.287-34.561-.18-61.883.793 8.425,6.084 9.145,3.059-11.305-7.307 38.809-.613 48.601-.791-6.876,6.875 9.645-7.92z" stroke="#000" stroke-miterlimit="10" stroke-width=".036"/>
 <path d="m335.124,152.82c-4.752,2.555-10.188,4.282-16.452,5.328-6.336.971-13.355,1.151-21.204.539l-5.651,12.78c8.137,2.34 15.731,3.131 23.221,2.375 7.416-.828 14.327-3.203 21.022-7.127-.289-4.608-.613-9.25-.936-13.895z" fill="#e0dbdc"/>
 <path d="m286.128,185.291c.576-2.34 2.916-8.459 7.164-18.646 4.284-10.297 10.764-26.711 17.892-42.156 7.021-15.552 14.832-31.788 23.832-49.824 .9,11.412 1.692,18.72 1.98,22.608 .288,3.744.288,3.744 0,0l40.067,89.855-15.769-7.307 11.304,3.348-36.216-81 .792,17.712 24.3,65.88-17.424-3.492 14.364,1.045-21.42-56.845 1.836,60.518-38.809-1.836c5.327-.433 10.801-.685 16.813-.757 5.939-.071 12.023-.071 18.647.144l-2.124-101.303c-8.748,18.36-16.813,35.712-24.769,52.884-7.988,17.168-15.332,33.19-22.46,49.172z" stroke="#000" stroke-miterlimit="10" stroke-width=".036"/>
 <path d="m348.88 79.308c0 17.712 16.092 32.076 35.892 32.076 19.836 0 35.929-14.364 35.929-32.076s-16.093-32.076-35.929-32.076c-19.8 0-35.892 14.364-35.892 32.076z" fill="#ffffc7"/>
 <path d="m353.81 80.676c0 15.12 13.752 27.432 30.708 27.432s30.708-12.312 30.708-27.432c0-15.156-13.752-27.432-30.708-27.432s-30.708 12.276-30.708 27.432z" fill="#f0a04a"/>
</svg>
